<svg version="1.1" id="Layer_1" xmlns="http://www.w3.org/2000/svg" xmlns:xlink="http://www.w3.org/1999/xlink" x="0px" y="0px"
	 width="100%" viewBox="0 0 464 464" enable-background="new 0 0 464 464" xml:space="preserve">
<path fill="#FF0000" opacity="1.000000" stroke="none" 
	d="
M354.244812,279.000000 
	C354.244293,285.164215 354.258301,290.828430 354.244049,296.492615 
	C354.198761,314.506866 343.855804,325.112396 325.701813,325.181610 
	C285.553040,325.334747 245.403442,325.270905 205.254181,325.288788 
	C183.596893,325.298431 161.939606,325.304565 140.282318,325.292999 
	C121.257294,325.282837 110.888451,315.126007 110.831207,295.970947 
	C110.705246,253.823227 110.765762,211.674942 110.751167,169.526901 
	C110.744179,149.368988 110.745491,129.211075 110.729279,109.053169 
	C110.725494,104.341858 111.330940,99.682320 113.305428,95.427361 
	C117.722343,85.909012 125.503136,80.806709 135.860626,80.783386 
	C199.665833,80.639694 263.471710,80.643326 327.276978,80.780617 
	C343.594635,80.815727 354.206696,92.121788 354.226654,109.074234 
	C354.293091,165.549423 354.248474,222.024734 354.244812,279.000000 
M121.074570,177.500305 
	C121.074570,218.229874 121.074570,258.959442 121.074570,299.688995 
	C121.741234,290.705109 121.700905,281.720490 121.755562,272.736450 
	C121.791321,266.858368 124.573631,262.530212 130.184555,262.149506 
	C142.456528,261.316833 154.815277,260.959717 167.065475,262.575989 
	C172.177841,263.250519 174.980515,267.059235 175.138535,272.023804 
	C175.445847,281.678619 175.468323,291.355042 175.199524,301.011139 
	C175.024445,307.301178 170.982269,311.279816 165.224716,311.327728 
	C152.663147,311.432281 140.100113,311.360046 126.765518,311.360046 
	C130.717743,313.392395 134.059830,314.702454 138.049469,314.699310 
	C201.201675,314.649414 264.353943,314.697815 327.506195,314.697449 
	C338.286011,314.697357 343.699066,309.203522 343.700256,298.353333 
	C343.707214,234.867722 343.707397,171.382126 343.691956,107.896515 
	C343.689270,96.846382 338.166046,91.251617 327.205231,91.252449 
	C264.053162,91.257240 200.901108,91.281113 137.749054,91.326004 
	C127.140961,91.333542 121.310478,97.106964 121.268417,107.599342 
	C121.176361,130.566254 121.136208,153.533401 121.074570,177.500305 
z"/>
<path fill="#FF0000" opacity="1.000000" stroke="none" 
	d="
M146.002319,199.341965 
	C141.678452,199.315430 137.851669,199.363037 134.029846,199.246796 
	C125.646439,198.991867 121.846924,195.177002 121.768684,186.875656 
	C121.687180,178.229172 121.688499,169.581482 121.716553,160.934525 
	C121.738045,154.310471 125.347847,150.010284 131.893936,149.831665 
	C142.693878,149.536957 153.514893,149.557297 164.314438,149.873947 
	C171.021225,150.070587 175.056976,154.376999 175.217529,161.120590 
	C175.435150,170.261383 175.429688,179.414642 175.224777,188.555939 
	C175.078903,195.063782 171.034409,199.006287 164.459381,199.246948 
	C158.480331,199.465805 152.488083,199.324387 146.002319,199.341965 
z"/>
<path fill="#FF0000" opacity="1.000000" stroke="none" 
	d="
M175.317108,239.920425 
	C175.312836,241.907135 175.351501,243.408615 175.296814,244.906677 
	C175.050476,251.654556 171.648254,255.729660 164.915192,255.970428 
	C153.930023,256.363220 142.918137,256.371826 131.927750,256.111206 
	C125.923325,255.968796 122.008484,251.828384 121.853477,245.760941 
	C121.602455,235.934586 121.605980,226.094208 121.817688,216.266541 
	C121.935135,210.814301 126.135872,206.961243 132.184509,206.829926 
	C142.845474,206.598434 153.518082,206.603073 164.179794,206.813400 
	C170.987915,206.947723 175.059265,211.338379 175.245209,218.435883 
	C175.428482,225.430954 175.305634,232.434052 175.317108,239.920425 
z"/>
<path fill="#FF0000" opacity="1.000000" stroke="none" 
	d="
M178.793228,187.591003 
	C178.739227,178.658371 178.663818,170.180908 178.681381,161.703644 
	C178.696533,154.390091 181.642822,150.532455 188.836273,150.127777 
	C199.940628,149.503082 211.108856,149.212814 222.188095,150.663055 
	C228.529984,151.493195 230.634811,154.172729 231.462631,160.379379 
	C232.678207,169.493454 232.258713,178.633316 232.164795,187.760941 
	C232.088608,195.165359 229.148178,198.653503 221.653275,198.988663 
	C210.539978,199.485626 199.384048,199.383331 188.258041,199.090042 
	C182.846558,198.947403 180.114319,195.252518 178.793228,187.591003 
z"/>
</svg>